<svg width="13" height="16" viewBox="0 0 13 16" fill="none" xmlns="http://www.w3.org/2000/svg">
<path fill-rule="evenodd" clip-rule="evenodd" d="M6.48864 0C8.14014 0 9.47894 1.30244 9.47894 2.90909V8C9.47894 9.60665 8.14014 10.9091 6.48864 10.9091C4.83715 10.9091 3.49835 9.60665 3.49835 8V2.90909C3.49835 1.30244 4.83715 0 6.48864 0ZM7.23624 13.7732V14.5455H9.47896V16H3.49838V14.5455H5.7411V13.7732C2.79094 13.4153 0.508087 10.967 0.508087 8V6.54545H2.00323V8C2.00323 10.41 4.01143 12.3636 6.48867 12.3636C8.96591 12.3636 10.9741 10.41 10.9741 8V6.54545H12.4693V8C12.4693 10.967 10.1864 13.4153 7.23624 13.7732ZM4.99352 2.90909C4.99352 2.10577 5.66292 1.45454 6.48866 1.45454C7.31441 1.45454 7.98381 2.10577 7.98381 2.90909V8C7.98381 8.80332 7.31441 9.45455 6.48866 9.45455C5.66292 9.45455 4.99352 8.80332 4.99352 8V2.90909Z" fill="#898F97"/>
</svg>
