<svg width="67" height="67" viewBox="0 0 67 67" fill="none" xmlns="http://www.w3.org/2000/svg">
<path d="M12.0208 45.0232C5.38191 38.406 5.3819 27.6773 12.0208 21.0601L21.1292 11.9815C27.7681 5.36428 38.5319 5.36427 45.1708 11.9815L54.2792 21.0601C60.9181 27.6773 60.9181 38.4059 54.2792 45.0232L45.1708 54.1018C38.5319 60.719 27.7681 60.719 21.1292 54.1018L12.0208 45.0232Z" fill="url(#paint0_linear)"/>
<path opacity="0.25" d="M12.75 29.6528C12.75 20.2947 20.3612 12.7084 29.75 12.7084H42.5C51.8888 12.7084 59.5 20.2947 59.5 29.6528V42.3611C59.5 51.7193 51.8888 59.3056 42.5 59.3056H29.75C20.3612 59.3056 12.75 51.7193 12.75 42.3611V29.6528Z" fill="#FF334B"/>
<path opacity="0.25" d="M6.80005 23.7223C6.80005 14.3641 14.4112 6.77783 23.8001 6.77783H36.5501C45.9389 6.77783 53.5501 14.3641 53.5501 23.7223V36.4306C53.5501 45.7888 45.9389 53.375 36.5501 53.375H23.8001C14.4112 53.375 6.80005 45.7888 6.80005 36.4306V23.7223Z" fill="#3369FF"/>
<path d="M38.2874 37.3131L42.262 24.0524H46.9412L39.1727 46.5631C37.9803 49.8512 35.9568 51.4952 33.1024 51.4952C32.464 51.4952 31.7594 51.3868 30.9886 51.17V47.7736L31.8196 47.8278C32.9277 47.8278 33.7588 47.623 34.3128 47.2135C34.8789 46.816 35.3245 46.1416 35.6497 45.1901L36.282 43.5099L29.4168 24.0524H34.1502L38.2874 37.3131Z" fill="#F3A0FA"/>
<path d="M37.2797 20.9811H29.0775V43.6002H24.5428V20.9811H16.413V17.2955H37.2797V20.9811Z" fill="#FFF9F9" fill-opacity="0.65"/>
<defs>
<linearGradient id="paint0_linear" x1="33.1105" y1="0.0394307" x2="33.1105" y2="66.1228" gradientUnits="userSpaceOnUse">
<stop stop-color="#FF334B"/>
<stop offset="0.46875" stop-color="#C600F9"/>
<stop offset="1" stop-color="#3369FF"/>
</linearGradient>
</defs>
</svg>
