<svg width="247" height="67" viewBox="0 0 247 67" fill="none" xmlns="http://www.w3.org/2000/svg">
<path d="M89.5951 30.5H83.8971V29.834C83.8971 28.4033 83.5764 27.318 82.9351 26.578C82.3184 25.8133 81.4921 25.209 80.4561 24.765L80.0861 24.728V49H74.2031V24.728H73.8331C71.5144 25.6407 70.3551 27.355 70.3551 29.871V30.5H64.6941V29.871C64.6941 28.5637 65.0518 27.4537 65.7671 26.541C66.4824 25.6037 67.4568 24.9007 68.6901 24.432C69.9481 23.9387 71.2554 23.5933 72.6121 23.396C73.9934 23.1987 75.4981 23.1 77.1261 23.1C78.7541 23.1 80.2464 23.1987 81.6031 23.396C82.9844 23.5933 84.3041 23.9387 85.5621 24.432C86.8201 24.9007 87.8068 25.6037 88.5221 26.541C89.2374 27.4537 89.5951 28.5637 89.5951 29.871V30.5ZM103.148 43.191C103.148 44.9423 102.469 46.41 101.113 47.594C99.7558 48.778 97.9922 49.37 95.8215 49.37C93.6508 49.37 91.8872 48.778 90.5305 47.594C89.1738 46.41 88.4955 44.9423 88.4955 43.191V37.382C88.4955 35.6307 89.1738 34.1753 90.5305 33.016C91.8872 31.832 93.6508 31.24 95.8215 31.24C97.9922 31.24 99.7558 31.832 101.113 33.016C102.469 34.1753 103.148 35.6307 103.148 37.382V43.191ZM98.0785 44.634V35.939C98.0785 33.5463 97.3138 32.35 95.7845 32.35C94.2798 32.35 93.5275 33.5463 93.5275 35.939V44.634C93.5275 47.0513 94.2798 48.26 95.7845 48.26C97.3138 48.26 98.0785 47.0513 98.0785 44.634ZM112.253 54.365H107.221V31.61H112.253V33.682C112.401 33.09 112.796 32.535 113.437 32.017C114.103 31.499 114.917 31.24 115.879 31.24C117.655 31.24 119.086 31.7703 120.171 32.831C121.281 33.8917 121.836 35.31 121.836 37.086V43.487C121.836 45.3123 121.318 46.7553 120.282 47.816C119.271 48.852 117.803 49.37 115.879 49.37C114.991 49.37 114.226 49.111 113.585 48.593C112.944 48.075 112.5 47.4953 112.253 46.854V54.365ZM112.253 36.642V43.931C112.253 45.041 112.524 46.0277 113.067 46.891C113.61 47.7543 114.226 48.186 114.917 48.186C115.608 48.186 116.089 47.9147 116.36 47.372C116.631 46.8293 116.767 45.9537 116.767 44.745V35.828C116.767 34.6933 116.631 33.83 116.36 33.238C116.113 32.646 115.632 32.35 114.917 32.35C114.226 32.35 113.61 32.8063 113.067 33.719C112.524 34.6317 112.253 35.606 112.253 36.642ZM145.512 26.393C145.512 28.613 144.821 30.5863 143.44 32.313C142.058 34.015 140.245 35.1743 138.001 35.791V49H132.118V35.828C129.873 35.2113 128.06 34.0397 126.679 32.313C125.297 30.5863 124.607 28.613 124.607 26.393V23.47H130.49V29.094C130.49 30.7467 130.909 32.128 131.748 33.238C132.611 34.3233 133.709 34.866 135.041 34.866C136.397 34.866 137.495 34.3233 138.334 33.238C139.172 32.1527 139.592 30.7713 139.592 29.094V23.47H145.512V26.393ZM162.289 47.52C162.782 47.52 163.177 47.1253 163.473 46.336L164.176 46.447C164.176 46.6937 164.077 47.0143 163.88 47.409C163.707 47.779 163.497 48.0873 163.251 48.334C162.609 49.0247 161.647 49.37 160.365 49.37C158.071 49.37 156.776 48.4697 156.48 46.669L156.406 46.854C155.74 48.5313 154.494 49.37 152.669 49.37C150.843 49.37 149.413 48.852 148.377 47.816C147.341 46.7553 146.823 45.3247 146.823 43.524V31.61H151.855V45.152C151.855 46.1387 152.04 46.8787 152.41 47.372C152.804 47.8407 153.322 48.075 153.964 48.075C154.63 48.075 155.197 47.668 155.666 46.854C156.159 46.0153 156.406 45.0533 156.406 43.968V31.61H161.438V46.262C161.438 47.1007 161.721 47.52 162.289 47.52ZM180.832 31.61V46.41C180.832 49.148 180.068 51.294 178.538 52.848C177.034 54.402 175.036 55.179 172.544 55.179C171.558 55.179 170.682 54.957 169.917 54.513C169.153 54.0937 168.635 53.6743 168.363 53.255L167.919 52.626L168.659 52.034C168.733 52.182 168.894 52.3793 169.14 52.626C169.387 52.8973 169.621 53.1193 169.843 53.292C170.485 53.7113 171.212 53.921 172.026 53.921C172.865 53.921 173.543 53.7607 174.061 53.44C174.579 53.144 174.974 52.6753 175.245 52.034C175.665 50.9733 175.874 49.4193 175.874 47.372V46.632C175.677 47.298 175.258 47.927 174.616 48.519C173.975 49.0863 173.161 49.37 172.174 49.37C170.25 49.37 168.77 48.852 167.734 47.816C166.723 46.7553 166.217 45.3123 166.217 43.487V37.086C166.217 35.31 166.76 33.8917 167.845 32.831C168.955 31.7703 170.398 31.24 172.174 31.24C173.136 31.24 173.938 31.499 174.579 32.017C175.245 32.535 175.652 33.09 175.8 33.682V31.61H180.832ZM175.8 36.642C175.8 35.606 175.529 34.6317 174.986 33.719C174.444 32.8063 173.815 32.35 173.099 32.35C172.409 32.35 171.928 32.646 171.656 33.238C171.41 33.83 171.286 34.6933 171.286 35.828V44.745C171.286 45.9537 171.422 46.8293 171.693 47.372C171.965 47.9147 172.446 48.186 173.136 48.186C173.827 48.186 174.444 47.7543 174.986 46.891C175.529 46.0277 175.8 45.041 175.8 43.931V36.642Z" fill="white"/>
<path d="M198.964 32.06C198.964 32.6013 199.011 32.984 199.104 33.208C199.197 33.4133 199.384 33.5533 199.664 33.628C199.963 33.7027 200.467 33.74 201.176 33.74C202.744 33.74 203.855 33.6653 204.508 33.516C205.18 33.3667 205.656 33.068 205.936 32.62C206.216 32.172 206.431 31.4067 206.58 30.324L207.812 30.184L207.896 30.324C207.84 30.5853 207.728 31.192 207.56 32.144C207.392 33.0773 207.252 34.0387 207.14 35.028L207 35.196C206.365 35.1773 205.068 35.14 203.108 35.084C201.148 35.028 199.617 35 198.516 35C197.639 35 196.817 35.0373 196.052 35.112C195.305 35.1867 194.829 35.2427 194.624 35.28L194.792 33.992C195.632 33.88 196.201 33.6653 196.5 33.348C196.817 33.012 196.976 32.4427 196.976 31.64L197.004 19.88C197.004 19.2827 196.929 18.8813 196.78 18.676C196.649 18.4707 196.379 18.368 195.968 18.368C195.781 18.368 195.595 18.3773 195.408 18.396C195.221 18.4147 195.091 18.424 195.016 18.424L194.96 18.312L195.156 17.08C195.399 17.0987 195.884 17.1173 196.612 17.136C197.359 17.1547 198.171 17.164 199.048 17.164C201.269 17.164 202.996 17.1453 204.228 17.108C205.46 17.052 206.533 16.9587 207.448 16.828L207.532 16.996C207.513 17.108 207.457 17.3787 207.364 17.808C207.289 18.2187 207.205 18.7693 207.112 19.46C207.019 20.1507 206.944 20.8787 206.888 21.644L205.544 21.756C205.544 21.6627 205.553 21.504 205.572 21.28C205.591 21.0373 205.6 20.7947 205.6 20.552C205.6 19.8987 205.516 19.4507 205.348 19.208C205.18 18.9467 204.816 18.7787 204.256 18.704C203.696 18.6107 202.716 18.564 201.316 18.564C200.663 18.564 200.215 18.5827 199.972 18.62C199.729 18.6573 199.571 18.7507 199.496 18.9C199.421 19.0307 199.375 19.2827 199.356 19.656L199.132 25.088L202.016 25.116C202.445 25.116 203.052 25.0787 203.836 25.004C204.639 24.9107 205.171 24.8453 205.432 24.808L205.544 24.948L205.152 26.6C204.891 26.5813 204.377 26.5627 203.612 26.544C202.865 26.5253 202.072 26.516 201.232 26.516C200.541 26.516 199.823 26.5813 199.076 26.712C199.001 29.4 198.964 31.1827 198.964 32.06ZM218.908 33.264C216.967 34.5893 215.8 35.252 215.408 35.252C214.344 35.252 213.401 35.0093 212.58 34.524C211.759 34.02 211.124 33.32 210.676 32.424C210.228 31.528 210.004 30.5013 210.004 29.344C210.004 28.0187 210.312 26.796 210.928 25.676C211.563 24.556 212.412 23.6693 213.476 23.016C214.559 22.344 215.725 22.008 216.976 22.008C217.573 22.008 218.217 22.0453 218.908 22.12V17.472C218.908 16.464 218.563 15.96 217.872 15.96C217.741 15.96 217.601 15.9787 217.452 16.016C217.303 16.0347 217.209 16.0533 217.172 16.072L217.284 15.036C218.087 14.924 218.917 14.7747 219.776 14.588C220.635 14.4013 221.185 14.28 221.428 14.224L221.596 14.588C221.391 14.9053 221.204 16.8747 221.036 20.496C220.887 24.1173 220.812 27.972 220.812 32.06C220.812 32.4707 220.915 32.788 221.12 33.012C221.325 33.236 221.605 33.348 221.96 33.348C222.221 33.348 222.473 33.3013 222.716 33.208C222.977 33.096 223.183 32.984 223.332 32.872C223.5 32.76 223.603 32.6853 223.64 32.648L224.032 33.096C223.976 33.1893 223.836 33.3947 223.612 33.712C223.388 34.0107 223.089 34.328 222.716 34.664C222.361 35 221.988 35.224 221.596 35.336C220.14 35.336 219.309 34.6733 219.104 33.348L218.908 33.264ZM218.908 24.276C218.852 24.2387 218.712 24.1733 218.488 24.08C218.264 23.968 217.947 23.8653 217.536 23.772C217.144 23.6787 216.696 23.632 216.192 23.632C214.941 23.632 213.952 24.0613 213.224 24.92C212.515 25.76 212.16 26.9173 212.16 28.392C212.16 29.3253 212.319 30.1747 212.636 30.94C212.972 31.7053 213.42 32.312 213.98 32.76C214.559 33.208 215.184 33.432 215.856 33.432C216.248 33.432 216.668 33.32 217.116 33.096C217.583 32.872 217.975 32.648 218.292 32.424C218.609 32.1813 218.815 32.0227 218.908 31.948V24.276ZM226.555 25.284C226.555 24.276 226.21 23.772 225.519 23.772C225.388 23.772 225.248 23.7907 225.099 23.828C224.95 23.8467 224.856 23.8653 224.819 23.884L224.931 22.848C225.659 22.736 226.443 22.5867 227.283 22.4C228.123 22.1947 228.674 22.064 228.935 22.008L229.103 22.344C228.916 22.8293 228.748 23.9307 228.599 25.648C228.45 27.3653 228.375 29.036 228.375 30.66C228.375 32.4893 229.122 33.404 230.615 33.404C231.175 33.404 231.698 33.2733 232.183 33.012C232.668 32.732 233.275 32.3307 234.003 31.808V25.312C234.003 24.752 233.9 24.36 233.695 24.136C233.49 23.912 233.126 23.8 232.603 23.8L231.931 23.828L232.043 22.82C232.864 22.708 233.723 22.5587 234.619 22.372C235.515 22.1853 236.094 22.064 236.355 22.008L236.523 22.344C236.355 22.7733 236.206 23.94 236.075 25.844C235.963 27.748 235.907 29.82 235.907 32.06C235.907 32.4707 236.01 32.788 236.215 33.012C236.42 33.236 236.7 33.348 237.055 33.348C237.316 33.348 237.568 33.3013 237.811 33.208C238.072 33.096 238.278 32.984 238.427 32.872C238.595 32.76 238.698 32.6853 238.735 32.648L239.127 33.096C239.052 33.208 238.875 33.4413 238.595 33.796C238.334 34.1507 238.016 34.496 237.643 34.832C237.288 35.168 236.971 35.336 236.691 35.336C235.179 35.336 234.348 34.58 234.199 33.068L234.059 33.012C233.163 33.7027 232.351 34.2627 231.623 34.692C230.914 35.1213 230.428 35.336 230.167 35.336C228.972 35.336 228.048 35.056 227.395 34.496C226.76 33.936 226.443 33.1333 226.443 32.088L226.555 25.284Z" fill="white"/>
<path d="M12.3997 45.0232C5.55155 38.406 5.55153 27.6773 12.3997 21.0601L21.7951 11.9815C28.6433 5.36428 39.7464 5.36427 46.5945 11.9815L55.99 21.0601C62.8382 27.6773 62.8382 38.4059 55.99 45.0232L46.5946 54.1018C39.7464 60.719 28.6433 60.719 21.7952 54.1018L12.3997 45.0232Z" fill="url(#paint0_linear)"/>
<path opacity="0.25" d="M13.1519 29.6528C13.1519 20.2947 21.0029 12.7084 30.6877 12.7084H43.8395C53.5243 12.7084 61.3754 20.2947 61.3754 29.6528V42.3611C61.3754 51.7193 53.5243 59.3056 43.8395 59.3056H30.6877C21.0029 59.3056 13.1519 51.7193 13.1519 42.3611V29.6528Z" fill="#FF334B"/>
<path opacity="0.25" d="M7.0144 23.7223C7.0144 14.3641 14.8655 6.77783 24.5502 6.77783H37.7021C47.3868 6.77783 55.2379 14.3641 55.2379 23.7223V36.4306C55.2379 45.7888 47.3868 53.375 37.7021 53.375H24.5502C14.8655 53.375 7.0144 45.7888 7.0144 36.4306V23.7223Z" fill="#3369FF"/>
<path d="M39.2076 37.3131L43.1823 24.0524H47.8615L40.0929 46.5631C38.9005 49.8512 36.8771 51.4952 34.0226 51.4952C33.3842 51.4952 32.6796 51.3868 31.9088 51.17V47.7736L32.7399 47.8278C33.8479 47.8278 34.679 47.623 35.233 47.2135C35.7991 46.816 36.2448 46.1416 36.5699 45.1901L37.2023 43.5099L30.337 24.0524H35.0704L39.2076 37.3131Z" fill="#F3A0FA"/>
<path d="M37.7714 20.9811H29.5692V43.6002H25.0345V20.9811H16.9047V17.2955H37.7714V20.9811Z" fill="#FFF9F9" fill-opacity="0.65"/>
<defs>
<linearGradient id="paint0_linear" x1="34.1541" y1="0.0394292" x2="34.1541" y2="66.1228" gradientUnits="userSpaceOnUse">
<stop stop-color="#FF334B"/>
<stop offset="0.46875" stop-color="#C600F9"/>
<stop offset="1" stop-color="#3369FF"/>
</linearGradient>
</defs>
</svg>
