<svg width="51" height="51" viewBox="0 0 51 51" fill="none" xmlns="http://www.w3.org/2000/svg">
<circle cx="25.4999" cy="25.5" r="25.5" fill="#FF334B"/>
<path d="M21.4999 33.4146V17.5854C21.4999 17.5609 21.5048 17.5532 21.5068 17.55C21.5069 17.5499 21.5069 17.5497 21.507 17.5496C21.5116 17.5422 21.5233 17.5284 21.5455 17.5162C21.5677 17.5041 21.5889 17.4999 21.6042 17.5C21.6145 17.5001 21.631 17.5016 21.6591 17.5189L34.4591 25.4335C34.4835 25.4486 34.4896 25.4596 34.4918 25.4638C34.4959 25.4713 34.4999 25.4837 34.4999 25.5C34.4999 25.5163 34.4959 25.5287 34.4918 25.5362C34.4896 25.5404 34.4835 25.5514 34.4591 25.5665L21.6591 33.4811C21.631 33.4984 21.6145 33.4999 21.6042 33.5C21.5889 33.5001 21.5677 33.4959 21.5455 33.4838C21.5233 33.4716 21.5116 33.4578 21.507 33.4504L21.5068 33.45C21.5048 33.4468 21.4999 33.4391 21.4999 33.4146Z" stroke="white" stroke-width="3"/>
</svg>
