<svg width="51" height="51" viewBox="0 0 51 51" fill="none" xmlns="http://www.w3.org/2000/svg">
<path fill-rule="evenodd" clip-rule="evenodd" d="M25.5 51C11.4167 51 0 39.5833 0 25.5C0 11.4167 11.4167 0 25.5 0C39.5833 0 51 11.4167 51 25.5C51 39.5833 39.5833 51 25.5 51Z" fill="#FF334B"/>
<path fill-rule="evenodd" clip-rule="evenodd" d="M19 17C19 15.8954 19.8954 15 21 15C22.1046 15 23 15.8954 23 17V34C23 35.1046 22.1046 36 21 36C19.8954 36 19 35.1046 19 34V17Z" fill="white"/>
<path fill-rule="evenodd" clip-rule="evenodd" d="M28 17C28 15.8954 28.8954 15 30 15C31.1046 15 32 15.8954 32 17V34C32 35.1046 31.1046 36 30 36C28.8954 36 28 35.1046 28 34V17Z" fill="white"/>
</svg>
